<svg xmlns="http://www.w3.org/2000/svg" viewBox="0 0 280 320" role="img" aria-hidden="true">
  <defs>
    <linearGradient id="bg" x1="0%" y1="0%" x2="100%" y2="100%">
      <stop offset="0%" stop-color="#dbeafe"/>
      <stop offset="100%" stop-color="#e0e7ff"/>
    </linearGradient>
    <linearGradient id="phone" x1="0%" y1="0%" x2="0%" y2="100%">
      <stop offset="0%" stop-color="#2563eb"/>
      <stop offset="100%" stop-color="#1d4ed8"/>
    </linearGradient>
  </defs>
  <rect width="280" height="320" rx="20" fill="url(#bg)"/>
  <!-- ondas a simular chamada -->
  <circle cx="140" cy="150" r="72" fill="none" stroke="#93c5fd" stroke-width="3" opacity="0.5"/>
  <circle cx="140" cy="150" r="52" fill="none" stroke="#60a5fa" stroke-width="2" opacity="0.65"/>
  <!-- telemÛvel -->
  <rect x="108" y="88" width="64" height="128" rx="10" fill="url(#phone)" stroke="#1e3a8a" stroke-width="2"/>
  <rect x="118" y="100" width="44" height="88" rx="3" fill="#eff6ff"/>
  <circle cx="140" cy="198" r="5" fill="#cbd5e1"/>
  <rect x="128" y="92" width="24" height="4" rx="2" fill="#1e3a8a"/>
  <!-- bal„o "contacto" -->
  <path d="M200 52 L248 52 Q258 52 258 62 L258 100 Q258 110 248 110 L218 110 L205 128 L208 110 L200 110 Q190 110 190 100 L190 62 Q190 52 200 52Z" fill="#fff" stroke="#2563eb" stroke-width="2"/>
  <text x="224" y="88" text-anchor="middle" font-family="Segoe UI,system-ui,sans-serif" font-size="13" font-weight="700" fill="#1e40af">Ol·!</text>
</svg>
